<svg width="37" height="37" viewBox="0 0 37 37" fill="none" xmlns="http://www.w3.org/2000/svg">
<path d="M24.1006 18.5L34.0732 8.52734C36.0244 11.5866 37 14.9108 37 18.5C37 22.0892 36.0244 25.4134 34.0732 28.4727L24.1006 18.5ZM4.2998 6.64844C6.03418 4.57682 8.13591 2.95085 10.605 1.77051C13.0741 0.590169 15.7057 0 18.5 0C21.2943 0 23.9259 0.590169 26.395 1.77051C28.8641 2.95085 30.9658 4.57682 32.7002 6.64844L18.5 20.8486L4.2998 6.64844ZM2.92676 28.4727C0.975586 25.4134 0 22.0892 0 18.5C0 14.9108 0.975586 11.5866 2.92676 8.52734L12.8994 18.5L2.92676 28.4727ZM14.5254 20.126L17.0908 22.7275C17.2354 22.848 17.422 22.9443 17.6509 23.0166C17.8797 23.0889 18.0785 23.125 18.2471 23.125H18.5C19.1263 23.1491 19.596 23.0166 19.9092 22.7275L22.4746 20.126L32.7002 30.3516C30.9658 32.4232 28.8641 34.0492 26.395 35.2295C23.9259 36.4098 21.2943 37 18.5 37C15.7057 37 13.0741 36.4098 10.605 35.2295C8.13591 34.0492 6.03418 32.4232 4.2998 30.3516L14.5254 20.126Z" fill="white"/>
</svg>
