<svg width="43" height="43" viewBox="0 0 43 43" fill="none" xmlns="http://www.w3.org/2000/svg">
<path d="M17.6493 19.7489C18.0146 19.4844 18.191 19.0477 18.191 18.4472C18.2036 18.1616 18.1448 17.8803 18.0188 17.6241C17.9055 17.4184 17.7375 17.2462 17.5317 17.1244C17.3184 16.995 17.0814 16.9094 16.8347 16.8725C16.5659 16.8221 16.293 16.7969 16.0242 16.8011H13.0722V20.1479H16.2678C16.8179 20.1521 17.284 20.0177 17.6493 19.7489ZM18.1448 22.7724C17.7333 22.4574 17.1832 22.302 16.4987 22.302H13.0638V26.2493H16.4315C16.7465 26.2493 17.0362 26.2199 17.3176 26.1611C17.5838 26.1091 17.8375 26.0064 18.065 25.8588C18.2792 25.7202 18.4514 25.5312 18.5815 25.2877C18.7075 25.0441 18.7705 24.7334 18.7705 24.3597C18.7705 23.6164 18.5605 23.0915 18.1448 22.7724ZM21.5 2.6875C11.1111 2.6875 2.6875 11.1111 2.6875 21.5C2.6875 31.8889 11.1111 40.3125 21.5 40.3125C31.8889 40.3125 40.3125 31.8889 40.3125 21.5C40.3125 11.1111 31.8889 2.6875 21.5 2.6875ZM25.1323 14.7351H30.944V16.1502H25.1323V14.7351ZM21.5 26.4047C21.2282 26.9207 20.84 27.3664 20.3662 27.7064C19.8707 28.0508 19.3206 28.3027 18.7369 28.4497C18.1262 28.6133 17.4963 28.6939 16.8641 28.6891H9.91016V14.3655H16.6709C17.3554 14.3655 17.9769 14.4285 18.5437 14.5461C19.1064 14.6637 19.5852 14.8652 19.9883 15.1382C20.3872 15.4111 20.7021 15.7765 20.9247 16.23C21.1431 16.6793 21.2564 17.242 21.2564 17.9097C21.2564 18.6319 21.0927 19.2282 20.7651 19.7111C20.4334 20.194 19.9547 20.5846 19.3038 20.8911C20.1898 21.1431 20.8407 21.5924 21.269 22.2223C21.7058 22.8605 21.9199 23.6248 21.9199 24.5234C21.9199 25.2541 21.7813 25.8798 21.5 26.4047ZM33.2074 24.1875H25.716C25.716 25.0021 25.9974 25.7832 26.4215 26.2031C26.8498 26.6188 27.4629 26.8288 28.2649 26.8288C28.8444 26.8288 29.3357 26.6818 29.7557 26.3921C30.1714 26.1023 30.4233 25.7958 30.5157 25.4767H33.0269C32.6237 26.7238 32.0106 27.6141 31.1792 28.1516C30.3562 28.6891 29.3483 28.9578 28.1768 28.9578C27.3579 28.9578 26.623 28.8234 25.9638 28.5673C25.3297 28.3195 24.7586 27.9416 24.2883 27.4545C23.8246 26.9543 23.4661 26.3659 23.2343 25.7244C22.9781 25.0147 22.8521 24.2673 22.8605 23.5156C22.8605 22.7388 22.9907 22.0165 23.2427 21.3446C23.7256 20.0387 24.7292 18.9931 26.01 18.4514C26.6944 18.1658 27.4293 18.023 28.1726 18.0314C29.0544 18.0314 29.8187 18.1994 30.4821 18.5437C31.1209 18.8726 31.6754 19.3438 32.103 19.9211C32.5271 20.4964 32.8253 21.1515 33.0143 21.8905C33.1948 22.617 33.2578 23.3813 33.2074 24.1875ZM28.0844 20.173C27.6309 20.173 27.2487 20.2528 26.9548 20.4082C26.6608 20.5636 26.4173 20.7567 26.2325 20.9793C26.0566 21.1942 25.9265 21.4429 25.8504 21.71C25.7832 21.9325 25.737 22.1593 25.7202 22.3902H30.3604C30.2932 21.6638 30.0412 21.1263 29.7053 20.7483C29.3525 20.3746 28.7856 20.173 28.0844 20.173Z" fill="white"/>
</svg>
