<svg width="37" height="37" viewBox="0 0 37 37" fill="none" xmlns="http://www.w3.org/2000/svg">
<path d="M18.5 0.740234C8.69129 0.740234 0.73999 8.69153 0.73999 18.5002C0.73999 28.3089 8.69129 36.2602 18.5 36.2602C28.3087 36.2602 36.26 28.3089 36.26 18.5002C36.26 8.69153 28.3087 0.740234 18.5 0.740234ZM14.1525 25.8614H10.5561V14.2878H14.1525V25.8614ZM12.3321 12.867C11.1962 12.867 10.4617 12.0622 10.4617 11.0669C10.4617 10.0513 11.2184 9.27058 12.3783 9.27058C13.5383 9.27058 14.2487 10.0513 14.2709 11.0669C14.2709 12.0622 13.5383 12.867 12.3321 12.867ZM27.2875 25.8614H23.6911V19.4474C23.6911 17.9545 23.1694 16.9407 21.8688 16.9407C20.8754 16.9407 20.2852 17.627 20.0244 18.2875C19.9282 18.5224 19.9041 18.8554 19.9041 19.1866V25.8595H16.3059V17.9785C16.3059 16.5337 16.2596 15.3256 16.2115 14.2859H19.3362L19.5008 15.8936H19.573C20.0466 15.1388 21.2065 14.0251 23.1472 14.0251C25.5133 14.0251 27.2875 15.6105 27.2875 19.0182V25.8614Z" fill="white"/>
</svg>
